<svg width="1440" height="938" viewBox="0 0 1440 938" fill="none" xmlns="http://www.w3.org/2000/svg">
<rect width="1440" height="846" fill="url(#paint0_linear_193_1538)"/>
<circle cx="1264" cy="680" r="258" fill="url(#paint1_radial_193_1538)" fill-opacity="0.6"/>
<circle cx="948" cy="484" r="257" fill="url(#paint2_radial_193_1538)"/>
<path d="M301.929 84.4503C300.125 100.389 291.013 132.266 269 132.266" stroke="#AC81E9" stroke-width="5" stroke-linecap="round"/>
<path d="M301.929 167C303.733 149.558 312.845 114.674 334.858 114.674" stroke="#AC81E9" stroke-width="5" stroke-linecap="round"/>
<path d="M301.929 84C303.733 94.2246 312.845 114.674 334.858 114.674" stroke="#AC81E9" stroke-width="5" stroke-linecap="round"/>
<path d="M301.929 167C300.125 155.572 291.013 132.717 269 132.717" stroke="#AC81E9" stroke-width="5" stroke-linecap="round"/>
<path d="M611.098 28.166C610.435 34.0216 607.087 45.7326 599 45.7326" stroke="#777777" stroke-linecap="round"/>
<path d="M611.098 58.493C611.76 52.085 615.108 39.2691 623.195 39.2691" stroke="#777777" stroke-linecap="round"/>
<path d="M611.098 28C611.76 31.7564 615.108 39.2692 623.195 39.2692" stroke="#777777" stroke-linecap="round"/>
<path d="M611.098 58.493C610.435 54.2947 607.087 45.898 599 45.898" stroke="#777777" stroke-linecap="round"/>
<path d="M1001 0H1440V154C1440 154 1354.62 116.448 1296.81 106.586C1204.94 90.9108 1141.92 106.586 1055.4 54.2414C1029.76 38.7252 1001 0 1001 0Z" fill="#4C05B3"/>
<path d="M329 846H0V731C0 731 63.9879 759.042 107.307 766.406C176.162 778.112 223.392 766.406 288.229 805.495C307.448 817.082 329 846 329 846Z" fill="#4C05B3"/>
<defs>
<linearGradient id="paint0_linear_193_1538" x1="0" y1="0" x2="1440" y2="846" gradientUnits="userSpaceOnUse">
<stop stop-color="#9057E2"/>
<stop offset="1" stop-color="#4C05B3"/>
</linearGradient>
<radialGradient id="paint1_radial_193_1538" cx="0" cy="0" r="1" gradientUnits="userSpaceOnUse" gradientTransform="translate(1264 680) rotate(90) scale(258)">
<stop stop-color="#F06DB0" stop-opacity="0.5"/>
<stop offset="1" stop-color="#9057E2" stop-opacity="0"/>
</radialGradient>
<radialGradient id="paint2_radial_193_1538" cx="0" cy="0" r="1" gradientUnits="userSpaceOnUse" gradientTransform="translate(948 484) rotate(90) scale(257)">
<stop stop-color="#D42AF0" stop-opacity="0.5"/>
<stop offset="1" stop-color="#9057E2" stop-opacity="0"/>
</radialGradient>
</defs>
</svg>
