<svg width="80" height="80" viewBox="0 0 80 80" fill="none" xmlns="http://www.w3.org/2000/svg">
<path d="M73.7973 9.01384C73.6813 8.91269 73.5465 8.83538 73.4006 8.78633C73.2547 8.73729 73.1006 8.71746 72.947 8.72797C72.7934 8.73849 72.6435 8.77916 72.5056 8.84764C72.3678 8.91613 72.2447 9.01109 72.1436 9.12712C72.0424 9.24314 71.9651 9.37795 71.9161 9.52386C71.867 9.66976 71.8472 9.82389 71.8577 9.97745C71.8683 10.131 71.9089 10.281 71.9774 10.4189C72.0459 10.5567 72.1409 10.6797 72.2569 10.7809C82.7684 19.9457 76.7747 37.106 64.0352 37.0517C60.1384 37.0307 56.4644 35.3113 53.9548 32.334C43.9025 20.4079 32.9902 16.924 29.9373 15.1326C29.4909 14.914 29.2963 14.351 29.5577 13.9476C29.9308 13.3718 28.7217 14.0287 58.3542 7.27821C61.6133 6.55118 64.9253 6.82993 67.9325 8.08618C68.2183 8.20045 68.5376 8.19773 68.8214 8.0786C69.1053 7.95947 69.3308 7.73349 69.4495 7.44946C69.5681 7.16543 69.5703 6.84614 69.4555 6.56052C69.3408 6.2749 69.1183 6.04588 68.8361 5.9229C65.3791 4.47899 61.5777 4.15618 57.8436 4.9904L29.5728 11.3016C26.6345 11.9573 26.2028 15.9135 28.9063 17.2377C31.8952 18.9884 42.5041 22.3867 52.1625 33.8451C55.1331 37.3695 59.4909 39.3962 64.1063 39.3962C78.9161 39.3956 85.9578 19.6165 73.7973 9.01384ZM30.3425 44.1556C29.4574 43.4331 28.5857 42.6942 27.728 41.9395C26.0388 40.4434 22.4295 37.7637 18.102 32.7635C18.0013 32.6471 17.8787 32.5517 17.7411 32.4827C17.6035 32.4137 17.4536 32.3725 17.3001 32.3614C17.1466 32.3504 16.9924 32.3696 16.8463 32.4182C16.7002 32.4667 16.5651 32.5436 16.4488 32.6443C16.3323 32.745 16.2369 32.8677 16.1679 33.0053C16.0989 33.1429 16.0577 33.2927 16.0467 33.4462C16.0356 33.5998 16.0549 33.754 16.1034 33.9001C16.1519 34.0461 16.2288 34.1812 16.3295 34.2976C18.6148 36.9379 21.4164 39.8998 28.8613 45.9721C33.0216 49.3648 34.9869 54.5645 34.1183 59.8813C32.167 71.8257 17.8511 75.9337 8.58204 68.4596C4.08188 64.831 1.79282 59.2377 2.45844 53.4976L5.97719 23.1548C6.05719 22.4631 6.65797 21.9741 7.35532 22.0907C8.64735 22.3045 8.05047 23.3502 12.8634 29.941C12.9542 30.0654 13.0685 30.1706 13.1999 30.2508C13.3313 30.3309 13.4773 30.3844 13.6294 30.4081C13.7814 30.4318 13.9367 30.4253 14.0863 30.389C14.2359 30.3526 14.3768 30.2872 14.5011 30.1963C14.6254 30.1056 14.7306 29.9912 14.8108 29.8598C14.8909 29.7284 14.9443 29.5825 14.968 29.4304C14.9917 29.2783 14.9853 29.1231 14.9489 28.9735C14.9126 28.8239 14.8472 28.683 14.7564 28.5587C11.9078 24.6576 10.2889 21.5099 10.1583 21.3201C8.30672 18.617 4.03797 19.524 3.64844 22.8849L0.129535 53.2276C-0.629371 59.7718 1.98016 66.1484 7.11032 70.2848C17.8022 78.906 34.1981 73.9291 36.4316 60.2598C37.437 54.1051 35.1608 48.0848 30.3425 44.1556ZM66.3748 51.1052L49.1883 41.7681C46.7523 40.4449 44.0353 42.8177 44.9434 45.4249C45.4583 47.2234 48.4908 53.8429 48.9536 63.8921C49.0516 66.0202 49.7005 68.0787 50.8303 69.8451C50.9132 69.9748 51.0209 70.0868 51.1471 70.1749C51.2734 70.263 51.4157 70.3253 51.5661 70.3583C51.7164 70.3914 51.8718 70.3945 52.0233 70.3675C52.1748 70.3404 52.3196 70.2838 52.4492 70.2009C52.5789 70.118 52.691 70.0103 52.779 69.884C52.8671 69.7578 52.9294 69.6154 52.9625 69.4651C52.9955 69.3148 52.9986 69.1594 52.9716 69.0079C52.9446 68.8563 52.888 68.7116 52.805 68.582C51.8834 67.141 51.3755 65.527 51.2952 63.7845C50.8142 53.3438 47.6642 46.4293 47.157 44.6542C46.9525 44.0673 47.5094 43.5249 48.0688 43.8279L65.2555 53.1651C72.6222 57.1676 72.8231 67.4829 65.9628 71.6968C63.0281 73.5043 59.4508 73.5871 56.3931 71.9188C56.1208 71.7769 55.8037 71.7475 55.5099 71.8369C55.2161 71.9263 54.9692 72.1274 54.8221 72.397C54.675 72.6666 54.6396 72.9831 54.7235 73.2785C54.8073 73.5739 55.0037 73.8247 55.2705 73.9768C59.0636 76.0465 63.6673 76.0215 67.5364 73.4735C75.7053 68.0248 75.0708 55.8293 66.3748 51.1052Z" fill="#FFFBFF"/>
</svg>
