<svg width="86" height="86" viewBox="0 0 86 86" fill="none" xmlns="http://www.w3.org/2000/svg">
<path d="M69.9231 77.375H54.7981C54.0387 77.375 53.4231 77.9906 53.4231 78.75V84.25C53.4231 85.0094 54.0387 85.625 54.7981 85.625H69.9231C70.6825 85.625 71.2981 85.0094 71.2981 84.25V78.75C71.2981 77.9906 70.6825 77.375 69.9231 77.375Z" fill="#AC81E9"/>
<path d="M83.7528 39.0718L74.5733 56.1933C74.4855 56.3578 74.3653 56.5028 74.22 56.6195L68.5178 61.179C68.3776 61.298 68.2149 61.3876 68.0395 61.4426C67.864 61.4975 67.6793 61.5167 67.4963 61.4991C67.3132 61.4814 67.1356 61.4272 66.9739 61.3397C66.8122 61.2521 66.6697 61.133 66.5548 60.9895C66.4399 60.8459 66.355 60.6807 66.3051 60.5038C66.2551 60.3268 66.2412 60.1416 66.2641 59.9592C66.287 59.7767 66.3463 59.6007 66.4384 59.4416C66.5306 59.2824 66.6537 59.1434 66.8005 59.0327L71.118 55.5787C71.8865 54.9641 72.5226 54.2003 72.988 53.3333C71.7704 52.4902 70.3134 52.062 68.8333 52.1123C67.3531 52.1625 65.9285 52.6886 64.771 53.6124L59.4442 57.8749C57.9951 59.0341 56.8252 60.5044 56.0212 62.1769C55.2172 63.8494 54.7997 65.6813 54.7995 67.537V74.6252H70.8705C71.5353 73.2159 72.5323 71.9891 73.7758 71.0502L77.1198 68.5422C79.4832 66.7695 81.1345 64.21 81.7756 61.3262L85.8813 42.8489C86.0606 42.0675 85.9419 41.2474 85.5485 40.5488C85.1551 39.8503 84.5139 39.3236 83.7528 39.0718Z" fill="#AC81E9"/>
<path d="M48.3686 77.375H33.2436C32.4842 77.375 31.8686 77.9906 31.8686 78.75V84.25C31.8686 85.0094 32.4842 85.625 33.2436 85.625H48.3686C49.128 85.625 49.7436 85.0094 49.7436 84.25V78.75C49.7436 77.9906 49.128 77.375 48.3686 77.375Z" fill="#AC81E9"/>
<path d="M19.4138 39.0718L28.5947 56.1933C28.6825 56.3578 28.8027 56.5028 28.9481 56.6195L34.6502 61.179C34.9359 61.3945 35.2944 61.4901 35.6494 61.4455C36.0045 61.401 36.3282 61.2197 36.5518 60.9403C36.7754 60.6609 36.8812 60.3053 36.8468 59.9491C36.8124 59.5929 36.6405 59.2641 36.3676 59.0327L32.0501 55.5787C31.2815 54.9641 30.6454 54.2003 30.1801 53.3333C31.3977 52.4902 32.8546 52.062 34.3348 52.1123C35.815 52.1625 37.2395 52.6886 38.3971 53.6124L43.7238 57.8749C45.1729 59.0341 46.3428 60.5044 47.1468 62.1769C47.9508 63.8494 48.3684 65.6813 48.3686 67.537V74.6252H32.2976C31.6328 73.2159 30.6358 71.9891 29.3922 71.0502L26.0482 68.5422C23.6849 66.7695 22.0335 64.21 21.3925 61.3262L17.2867 42.8489C17.1075 42.0675 17.2262 41.2474 17.6196 40.5488C18.0129 39.8503 18.6527 39.3236 19.4138 39.0718Z" fill="#AC81E9"/>
<path d="M59.8333 22.3751H59.3438C61.3387 20.7691 62.7861 18.5837 63.4865 16.1203C64.187 13.6569 64.1058 11.0369 63.2544 8.62155C62.4029 6.20621 60.8231 4.11454 58.7327 2.63497C56.6423 1.15541 54.1444 0.36084 51.5833 0.36084C49.0223 0.36084 46.5244 1.15541 44.434 2.63497C42.3436 4.11454 40.7638 6.20621 39.9123 8.62155C39.0608 11.0369 38.9797 13.6569 39.6801 16.1203C40.3806 18.5837 41.828 20.7691 43.8228 22.3751H43.3333C41.6698 22.3772 40.0352 22.8107 38.5893 23.6332C37.1433 24.4557 35.9353 25.6392 35.0833 27.068C34.2314 25.6392 33.0234 24.4557 31.5774 23.6332C30.1315 22.8107 28.4969 22.3772 26.8333 22.3751H26.3438C28.3387 20.7691 29.7861 18.5837 30.4865 16.1203C31.187 13.6569 31.1058 11.0369 30.2544 8.62155C29.4029 6.20621 27.8231 4.11454 25.7327 2.63497C23.6423 1.15541 21.1444 0.36084 18.5833 0.36084C16.0223 0.36084 13.5244 1.15541 11.434 2.63497C9.34361 4.11454 7.76376 6.20621 6.9123 8.62155C6.06084 11.0369 5.97973 13.6569 6.68014 16.1203C7.38055 18.5837 8.82799 20.7691 10.8228 22.3751H10.3333C7.78153 22.378 5.33506 23.393 3.53066 25.1974C1.72625 27.0018 0.711255 29.4483 0.708344 32.0001V52.6251C0.708344 52.9898 0.853209 53.3395 1.11107 53.5974C1.36893 53.8552 1.71867 54.0001 2.08334 54.0001H68.0833C68.448 54.0001 68.7978 53.8552 69.0556 53.5974C69.3135 53.3395 69.4583 52.9898 69.4583 52.6251V32.0001C69.4554 29.4483 68.4404 27.0018 66.636 25.1974C64.8316 23.393 62.3852 22.378 59.8333 22.3751ZM18.5833 3.1251C20.6548 3.12825 22.6701 3.79865 24.3307 5.03696C25.9913 6.27528 27.2088 8.01561 27.8027 10.0001C24.7979 10.008 21.8571 9.13202 19.3465 7.4811C19.1204 7.33052 18.8549 7.25017 18.5833 7.25017C18.3118 7.25017 18.0462 7.33052 17.8202 7.4811C15.3037 9.11929 12.3668 9.99415 9.36397 10.0001C9.95792 8.01561 11.1754 6.27528 12.836 5.03696C14.4966 3.79865 16.5119 3.12825 18.5833 3.1251ZM8.95834 12.7501C12.3464 12.9167 15.7045 12.0445 18.5833 10.2503C21.5003 11.9539 24.831 12.819 28.2083 12.7501C28.2083 15.3028 27.1943 17.751 25.3892 19.556C23.5842 21.361 21.1361 22.3751 18.5833 22.3751C16.0306 22.3751 13.5825 21.361 11.7774 19.556C9.9724 17.751 8.95834 15.3028 8.95834 12.7501ZM24.8025 25.1251L23.1525 29.2501H14.0142L12.3642 25.1251H24.8025ZM33.7083 51.2501H3.45834V32.0001C3.46323 30.3365 4.07237 28.7314 5.1724 27.4834C6.27242 26.2354 7.7884 25.4295 9.43822 25.2158L11.806 31.1366C11.9084 31.3916 12.0847 31.6101 12.3124 31.764C12.54 31.9179 12.8086 32.0001 13.0833 32.0001H24.0833C24.3581 32.0001 24.6266 31.9179 24.8543 31.764C25.0819 31.6101 25.2583 31.3916 25.3607 31.1366L27.7285 25.2158C29.3783 25.4295 30.8943 26.2354 31.9943 27.4834C33.0943 28.7314 33.7035 30.3365 33.7083 32.0001V51.2501ZM51.5833 3.1251C53.2527 3.12722 54.8927 3.56365 56.3423 4.39151C57.7919 5.21937 59.0012 6.41016 59.8512 7.84685C57.5207 9.25532 54.8495 9.9999 52.1265 10.0001H42.364C42.9579 8.01561 44.1754 6.27528 45.836 5.03696C47.4965 3.79865 49.5119 3.12825 51.5833 3.1251ZM41.9583 12.7501H52.1265C55.2082 12.7527 58.237 11.9497 60.9127 10.4208C61.2433 11.743 61.2893 13.1203 61.0475 14.4616C60.8057 15.8029 60.2817 17.0774 59.5102 18.2009C58.7387 19.3244 57.7373 20.2712 56.5723 20.9785C55.4073 21.6858 54.1054 22.1375 52.7527 22.3038C51.4 22.47 50.0274 22.3469 48.7258 21.9427C47.4243 21.5385 46.2234 20.8624 45.2029 19.9591C44.1823 19.0559 43.3653 17.9461 42.8059 16.7033C42.2466 15.4604 41.9577 14.113 41.9583 12.7501ZM57.8025 25.1251L56.1525 29.2501H47.0142L45.3642 25.1251H57.8025ZM66.7083 51.2501H36.4583V32.0001C36.4632 30.3365 37.0724 28.7314 38.1724 27.4834C39.2724 26.2354 40.7884 25.4295 42.4382 25.2158L44.806 31.1366C44.9084 31.3916 45.0847 31.6101 45.3124 31.764C45.54 31.9179 45.8086 32.0001 46.0833 32.0001H57.0833C57.3581 32.0001 57.6266 31.9179 57.8543 31.764C58.0819 31.6101 58.2583 31.3916 58.3607 31.1366L60.7285 25.2158C62.3783 25.4295 63.8943 26.2354 64.9943 27.4834C66.0943 28.7314 66.7035 30.3365 66.7083 32.0001V51.2501Z" fill="#FCFBFE"/>
</svg>
