<svg width="89" height="80" viewBox="0 0 89 80" fill="none" xmlns="http://www.w3.org/2000/svg">
<path d="M51.4263 53.7514C51.771 53.8885 52.155 53.889 52.5 53.7529C85.1469 41.012 82.9357 20.4488 82.6256 18.3883C82.5606 8.61188 74.5876 0.680231 64.7978 0.680231C59.9088 0.680231 55.3182 2.65945 51.958 6.16297C50.3012 4.42491 48.3077 3.04245 46.0993 2.09984C43.8908 1.15723 41.5135 0.674213 39.1122 0.680231C35.9937 0.676243 32.929 1.49309 30.2261 3.04871C27.5232 4.60432 25.2774 6.8439 23.7142 9.54241H20.3673C14.2878 9.54241 10.8242 14.3797 9.7991 16.6248L0.666626 23.1089L2.37703 25.518L11.8551 18.7901C12.099 18.6171 12.2845 18.3739 12.3869 18.0929C12.8196 16.9098 15.4414 12.4965 20.3687 12.4965H22.4587C21.6272 15.3841 21.19 19.1859 21.1678 19.8329L21.1693 19.8447L21.1663 19.8816C21.1663 19.9791 21.2033 20.0633 21.2225 20.1564C21.2402 20.2494 21.2431 20.3439 21.2786 20.4326C21.3273 20.5537 21.4071 20.6541 21.4854 20.756C21.5223 20.8048 21.54 20.8639 21.5829 20.9082L21.5932 20.9155C21.7261 21.05 21.8842 21.1593 22.0599 21.2361L22.0688 21.242C22.2446 21.3173 22.4381 21.3587 22.6434 21.3587H29.5854C30.3992 21.3587 31.0624 22.0218 31.0624 22.8357C31.0631 23.0326 31.0233 23.2275 30.9455 23.4084C30.8678 23.5893 30.7538 23.7523 30.6105 23.8873C30.4771 24.0237 30.3176 24.1317 30.1414 24.2048C29.9653 24.2779 29.7761 24.3146 29.5854 24.3127H23.6773C23.2856 24.3127 22.9099 24.4683 22.6329 24.7453C22.3559 25.0223 22.2003 25.398 22.2003 25.7897C22.2003 26.0556 22.1781 26.3333 22.1338 26.5888C22.1279 26.6317 22.1264 26.6642 22.119 26.7099C22.1102 26.7941 22.091 26.868 22.0747 26.9448C21.6198 28.9757 17.5328 30.9608 14.8151 30.9608C14.1741 30.9608 13.5271 30.8323 12.895 30.5798C12.6266 30.4727 12.3327 30.4467 12.0497 30.5049C11.7667 30.5632 11.507 30.7032 11.3027 30.9077L1.21608 40.9943L3.3046 43.0828L12.7487 33.6402C13.4296 33.8233 14.1224 33.9164 14.8151 33.9164C17.4014 33.9164 21.1235 32.6092 23.2992 30.4114C26.4408 37.7862 33.9382 46.9334 51.4263 53.7514ZM29.5854 27.2668C29.8852 27.2668 30.1792 27.2372 30.4642 27.1811C31.3209 27.0113 32.0978 26.5933 32.6975 25.9773C32.7389 25.9375 32.7669 25.8887 32.8068 25.8474C33.5866 25.0398 34.0201 23.9597 34.015 22.8372C34.015 20.3942 32.0269 18.4061 29.5839 18.4061H24.2858C24.5591 16.415 25.144 13.1331 25.8869 11.7018L25.8884 11.6974C27.1368 9.26638 29.0321 7.22717 31.3654 5.80446C33.6987 4.38176 36.3794 3.63078 39.1122 3.63429C41.3627 3.62929 43.5844 4.13878 45.6078 5.12385C47.6312 6.10891 49.4026 7.54347 50.7867 9.31791C51.345 10.0313 52.5606 10.0313 53.1219 9.32086C55.9755 5.70657 60.2323 3.63429 64.7978 3.63429C66.5422 3.63429 68.2821 3.94004 69.9202 4.54267C78.2964 7.62375 81.1485 17.2643 79.2535 25.3319C78.1649 29.9697 75.651 34.1616 72.4547 37.6547C66.9233 43.7002 59.4997 47.7886 51.9624 50.787C34.1391 43.7032 27.5752 34.2576 25.2636 27.2668H29.5854ZM88.6666 63.073V60.1189H81.2815V58.6419C81.2815 58.2501 81.1259 57.8744 80.8489 57.5974C80.5719 57.3204 80.1962 57.1648 79.8044 57.1648H73.8963C73.5046 57.1648 73.1289 57.3204 72.8519 57.5974C72.5749 57.8744 72.4193 58.2501 72.4193 58.6419V59.5281C71.758 59.2549 71.0943 58.9876 70.4282 58.726C70.3943 58.7054 70.3736 58.6744 70.3382 58.6566C70.2362 58.6064 70.1299 58.5975 70.0235 58.571C67.6234 57.6463 65.1213 56.8074 63.9589 56.8074C61.5114 56.8074 57.4791 57.4765 55.367 59.2666L47.4914 57.7675C45.0189 57.2815 42.6409 58.9122 42.1062 61.3123L33.0978 57.2357C32.5573 56.981 31.9716 56.8362 31.3747 56.8098C30.7778 56.7835 30.1817 56.876 29.6209 57.0821C29.0649 57.2807 28.5537 57.5872 28.1164 57.9838C27.6792 58.3805 27.3246 58.8596 27.073 59.3937C26.779 59.983 26.6299 60.6358 26.6299 61.3301C26.6299 63.1025 27.6446 64.6977 29.2206 65.42L50.1782 77.4016C50.9407 77.7889 51.8056 77.9268 52.6507 77.796L63.758 76.1284C63.9973 76.1004 64.2159 76.1033 64.4093 76.1329C64.4891 76.1461 64.5659 76.1594 64.6516 76.1521L72.4178 76.1107V77.8447C72.4178 78.2365 72.5734 78.6122 72.8504 78.8892C73.1274 79.1661 73.5031 79.3218 73.8948 79.3218H79.803C80.1947 79.3218 80.5704 79.1661 80.8474 78.8892C81.1244 78.6122 81.28 78.2365 81.28 77.8447V76.3677H88.6651V73.4136H81.28V63.0744L88.6666 63.073ZM72.4193 73.1552L64.7461 73.1965C64.2884 73.1406 63.8255 73.1416 63.368 73.1995L52.2091 74.8744C51.9999 74.9112 51.7846 74.8871 51.5887 74.805L30.6252 62.8189C30.578 62.7914 30.5292 62.7667 30.479 62.745C29.8203 62.4615 29.5854 61.8278 29.5854 61.3301C29.5854 61.0967 29.6297 60.8884 29.7361 60.6772C29.9133 60.2947 30.2309 60.0052 30.6311 59.8589C31.0329 59.7098 31.4642 59.7319 31.863 59.918L42.7443 64.8439C42.7605 64.869 42.7694 64.8956 42.7856 64.9207C43.4857 65.9443 44.5403 66.6341 45.657 66.8349L57.2782 69.8392L58.0182 66.9797L46.295 63.9518C46.0797 63.9122 45.8744 63.8301 45.6911 63.7105C45.5078 63.5908 45.3501 63.4358 45.2272 63.2546C44.9761 62.8854 44.883 62.4423 44.9687 62.0036C45.14 61.1055 45.9568 60.4719 46.9316 60.6669L55.5885 62.3138C56.135 62.4142 56.6919 62.2059 57.0331 61.7673C57.8602 60.6979 61.0979 59.7614 63.9589 59.7614C64.9115 59.7614 68.7518 61.1794 72.4193 62.7303V73.1552ZM78.3274 76.3662H75.3733V60.1189H78.3274V76.3662Z" fill="#FFFBFF"/>
</svg>
